<?xml version="1.0" standalone="no"?>
<!DOCTYPE svg PUBLIC "-//W3C//DTD SVG 20010904//EN"
 "http://www.w3.org/TR/2001/REC-SVG-20010904/DTD/svg10.dtd">
<svg version="1.0" xmlns="http://www.w3.org/2000/svg"
 width="432.000000pt" height="432.000000pt" viewBox="0 0 432.000000 432.000000"
 preserveAspectRatio="xMidYMid meet">
<metadata>
Created by potrace 1.11, written by Peter Selinger 2001-2013
</metadata>
<g transform="translate(0.000000,432.000000) scale(0.100000,-0.100000)"
fill="#000000" stroke="none">
<path d="M0 2160 l0 -2160 2160 0 2160 0 0 2160 0 2160 -2160 0 -2160 0 0
-2160z m3009 1881 c340 -85 586 -353 651 -711 16 -89 14 -291 -5 -395 -101
-567 -572 -1058 -1158 -1206 -69 -18 -129 -22 -377 -29 -312 -8 -382 -17 -520
-65 -156 -53 -183 -76 -620 -511 l-405 -404 -122 122 -123 123 388 390 c405
407 465 477 512 602 56 150 70 256 75 568 4 220 7 263 29 356 45 195 151 421
275 584 264 346 658 574 1046 604 107 8 256 -4 354 -28z m286 -2433 c247 -53
441 -229 522 -473 23 -69 27 -98 27 -205 1 -142 -15 -212 -71 -321 -123 -239
-354 -380 -623 -380 -316 0 -585 202 -672 506 -32 112 -32 278 1 385 107 353
461 564 816 488z"/>
<path d="M2580 3705 c-452 -93 -842 -499 -916 -955 -19 -116 -12 -223 22 -332
116 -369 560 -478 999 -244 220 117 431 333 531 544 124 262 138 546 37 735
-35 65 -134 164 -200 200 -116 62 -315 84 -473 52z"/>
<path d="M3045 1256 c-65 -21 -98 -41 -146 -93 -157 -168 -108 -444 98 -548
52 -27 68 -30 153 -30 78 0 104 4 145 23 103 47 186 163 201 278 18 148 -81
311 -222 363 -63 24 -166 27 -229 7z"/>
</g>
</svg>
